<?xml version="1.0" encoding="UTF-8"?>
<!DOCTYPE svg PUBLIC "-//W3C//DTD SVG 1.1//EN" "http://www.w3.org/Graphics/SVG/1.1/DTD/svg11.dtd">
<!-- Creator: CorelDRAW -->
<svg xmlns="http://www.w3.org/2000/svg" xml:space="preserve" width="850px" height="223px" version="1.1" style="shape-rendering:geometricPrecision; text-rendering:geometricPrecision; image-rendering:optimizeQuality; fill-rule:evenodd; clip-rule:evenodd"
viewBox="0 0 850 222.95"
 xmlns:xlink="http://www.w3.org/1999/xlink"
 xmlns:xodm="http://www.corel.com/coreldraw/odm/2003">
 <defs>
  <style type="text/css">
   <![CDATA[
    .fil0 {fill:none}
    .fil4 {fill:#FEFEFE}
    .fil3 {fill:black}
    .fil5 {fill:gray}
    .fil6 {animation:eyes 2s linear infinite}
    .fil1 {fill:#B3B3B3;fill-rule:nonzero}
    .fil2 {fill:white;fill-rule:nonzero}
    @keyframes eyes {  
      0% {fill:white}
      50% {fill:white}
      51% {fill:#ec255a}
      100% {fill:#ec255a}
    }
   ]]>
  </style>
 </defs>
 <g id="Layer_x0020_1">
  <metadata id="CorelCorpID_0Corel-Layer"/>
  <rect class="fil0" y="0.53" width="850" height="222.95"/>
  <polygon class="fil1" points="850,63.36 850,34.2 735.93,34.2 735.93,63.36 777.57,63.36 777.57,189.8 808.54,189.8 808.54,63.36 "/>
  <polygon class="fil1" points="617.15,101.25 715.83,194.69 715.83,34.41 685.05,34.41 685.05,124.24 586.37,29.31 586.37,189.8 617.15,189.8 "/>
  <path class="fil2" d="M190.48 189.8l0 -48.53 21 0c11.77,17.03 22.63,32.56 34.22,48.53l37.12 0c-11.59,-16.6 -24.81,-35.34 -37.12,-52.15 17.38,-6.6 29.15,-21.92 29.15,-49.38 0,-36.4 -20.82,-54.07 -51.6,-54.07l-63.55 0 0 155.6 30.78 0zm0 -77.69l0 -48.74 32.77 0c18.29,0 21,14.26 21,24.9 0,18.73 -11.4,23.84 -21,23.84l-32.77 0z"/>
  <path class="fil2" d="M0 189.8l63.37 0c38.93,0 70.25,-18.09 70.25,-77.9 0,-58.33 -31.68,-77.7 -70.25,-77.7l-63.37 0 0 155.6zm30.96 -29.16l0 -97.06 28.07 0c19.37,0 43.27,4.04 43.27,48.53 0,44.48 -23.72,48.53 -43.27,48.53l-28.07 0z"/>
  <path class="fil3" d="M466.74 203.03c2.22,-0.96 5.49,-1.58 7.54,-3.02 -11.91,-1.24 -17,0.06 -29.34,-3.87 2.49,-2.69 13.36,-3.42 17.75,-7.29 -18.79,-15.44 -55.13,-3.04 -76.15,2.21 -2.5,-3.86 6.62,-30.23 10.22,-33.42 6.98,-12.24 -54.13,10 -56.64,12.46 8.83,-16.55 13,-22.49 28.75,-36.13 -14.27,0 -24.96,-5.96 -57.47,2.05 10.34,-12.13 13.62,-14.4 39.47,-27.43 -12.35,-6.33 -26.5,-9.22 -35.03,-9.28 5.92,-17.17 39.54,-35.32 47.42,-30.08 -2.15,3.31 -3.19,2.54 -3.05,8.74 9.33,0.72 20.91,7.25 26.18,13.05 23.36,3.63 -4.01,-44.51 -31.77,-49.23 0.25,9 3.26,9 5.3,15.28 -10.21,-1.38 -16.77,-26.91 -12.9,-34.34 36.73,4.32 59.99,32.07 72.62,34.95 -0.61,-7.59 -8.72,-15.16 -8.83,-17.22 14.83,-7.89 43.68,8.9 56.63,11.79l-9.02 -8.3c16.94,-0.46 42.32,24.4 42.97,40.63 0.87,2.86 -0.65,4.64 1.76,6.75l3 -4.83c7.69,6.3 7.76,21.35 1.84,22.82 -0.77,-3 -2.6,-7.22 -6.15,-10.01 1.21,3.01 2.12,10.25 0.49,12.58 -1.07,-1.8 -8.05,-9.05 -9.95,-8.89 2.19,6.48 1.92,8.89 -0.02,11.48 -10.5,14.06 -26.03,-19.97 -64.19,-14.09 4.55,1.94 13.25,10 12.16,15.05 1.38,-0.11 9.4,5.44 13.56,6.98 6.47,2.42 14.02,0.47 20.23,2.18 -1.25,1.72 -2.36,2.39 -4.08,3.56 3.43,2.86 10.49,1.52 13.53,1.66 1.24,-3.1 1.08,-3.14 6.17,-6.52 1.9,-1.25 9.23,-9.4 16.37,-8.2 5.76,0.98 36.25,30.11 39.53,35.44 -21.27,-3.25 -18.3,4.21 -30.88,-2.27l2.11 6.11c4.88,6.9 12.32,6.59 12.5,11.37 -8.43,19.14 -45.62,13.14 -46.29,-3.97l12.56 3.49c-3.32,-10.02 -17.8,-14.21 -25.22,-16.49 1.62,-3.13 10.5,-3.14 13.5,-5.12 -34.57,-9.58 -36.13,-6.38 -52.6,-1.26 0.98,-4.51 4.59,-7.67 5.8,-11.3 -12.83,4.45 -20.13,14.56 -21.77,27.83 4.1,-1.01 10.72,-4.74 16.89,-4.76 -1.59,3.89 -6.42,6.17 -6.53,11.99 19.06,0.41 34.52,1.83 51.42,7.44 7.28,2.42 13.47,6.14 20.37,8.85 10.25,4.03 15.47,0.27 25.65,-0.11 1.9,10.97 -8.35,23.68 -11.85,21.24l-0.23 -0.32c0.57,-1.19 1.89,-4.47 2.27,-6.24 -18.93,8.81 -23.94,15.69 -46.6,6.01zm72.57 -27.03c-6.93,3.02 -8.72,-5.15 -6.55,-8.06 1.43,-1.93 1.02,-1.23 1.3,-3.97 4.4,-0.96 6.55,-4.63 10.38,-6.43 4.59,6.81 3.91,16.05 -5.13,18.46zm-101.73 -21.53c-0.07,-15.77 7.7,-9.29 10.85,-8.23 9.7,3.26 28.1,9.1 29.49,21.55 -15.54,-4.68 -23.76,-4.18 -39.37,-6.23 -1.01,-3.57 1.75,-5.09 3.03,-5.97 1.16,-0.23 2.52,-1.29 3.65,-1.29 1.13,0 1.89,2.7 2.86,2.86 0.57,0.1 3.1,-0.45 4.07,-0.6 0.99,-0.15 2.05,2.12 2.93,2.64 1.06,0.62 8.74,0.9 9.19,0.75 -0.67,-1.05 -7.45,-1.41 -8.36,-2.26 -0.6,-0.56 -2.36,-3.1 -3.09,-3.09 -1.24,0.02 -3.6,0.84 -4.14,0.38 -1.32,-1.11 -2.42,-3.64 -2.79,-4.03 -3.4,0.96 -5.24,2.83 -8.32,3.52zm30.98 -38.8c-7.81,1.59 -9.99,1.41 -10.93,-6.78 5.34,0.29 10.03,2.34 10.93,6.78zm-23.99 -79.02c-14.94,-2.58 -17.95,-2.88 -29.45,-12.69 -1.14,3.17 -1.07,4.2 -1.31,7.47 -2.32,-0.58 -5.9,-17.4 -6.08,-20.48 7.12,1.29 36.23,18.13 36.84,25.7zm-151.51 75.01c8.96,-3.98 26.86,-1.43 30.51,0.08 -12.65,8.29 -20.74,13.3 -31.34,35.86 16.72,-0.45 42.18,-6.38 50.92,-4.6 -16.5,12.96 -17.7,30.74 -26.74,50.32 4.37,-8.06 50.28,-19.61 57.09,-20.95 -3.34,9.62 -7.55,45.14 -4.88,50.79 15.06,-11.63 37.04,-23.75 59.81,-26.52 0,3.35 -2.34,11.15 -9.49,14.91 20.19,4.38 24,4.7 44.09,2.27 -1.05,5.4 -2.84,4.05 -6.51,6.39 14.19,7.72 32.37,-0.12 46.35,-4.36l-1.25 6.2c30.97,-1.72 20.25,-26.51 39.3,-38.53 10.18,-6.43 12.42,-11.32 13.76,-14.45l-0.9 -6.33c-0.48,-0.92 6.5,-5.18 3.01,-12.36 -3.74,-7.7 -6.63,-8.13 -12.35,-14.46l-21.43 -19.05c-1.07,-0.92 -2.12,-1.08 -2.52,-2.29 -0.98,-2.94 1.26,-12.96 0.02,-18.42 -0.62,-2.75 -1.79,-4.78 -2.64,-7.3 -1.69,-5.06 -0.48,-3.75 -3.66,-5.98 -5.02,-3.52 -11.13,-17.01 -16.01,-23.16 -6.54,-8.24 -11.9,-13.16 -21.42,-18.05 -10.52,-5.41 -17.8,-3.92 -25.84,-13.34 -14.36,-16.84 -33.24,-27.8 -55.68,-27.8 -0.28,12.56 2.7,16.92 4.88,27.51 -20.74,-4.6 -40.91,-18.55 -64.44,-14.51 -2.87,32.9 5.22,39.57 8.42,48.26 -19.09,4.59 -33.89,17.18 -51.06,49.87z"/>
  <path class="fil4" d="M444.57 36.65c-14.94,-2.58 -17.95,-2.88 -29.45,-12.69 -1.14,3.17 -1.07,4.2 -1.31,7.47 -2.32,-0.58 -5.9,-17.4 -6.08,-20.48 7.12,1.29 36.23,18.13 36.84,25.7z"/>
  <path class="fil4" d="M468.56 115.67c-7.81,1.59 -9.99,1.41 -10.93,-6.78 5.34,0.29 10.03,2.34 10.93,6.78z"/>
  <path class="fil4" d="M437.58 154.47c-0.07,-15.77 7.7,-9.29 10.85,-8.23 9.7,3.26 28.1,9.1 29.49,21.55 -15.54,-4.68 -23.76,-4.18 -39.37,-6.23 -1.01,-3.57 1.75,-5.09 3.03,-5.97 1.16,-0.23 2.52,-1.29 3.65,-1.29 1.13,0 1.89,2.7 2.86,2.86 0.57,0.1 3.1,-0.45 4.07,-0.6 0.99,-0.15 2.05,2.12 2.93,2.64 1.06,0.62 8.74,0.9 9.19,0.75 -0.67,-1.05 -7.45,-1.41 -8.36,-2.26 -0.6,-0.56 -2.36,-3.1 -3.09,-3.09 -1.24,0.02 -3.6,0.84 -4.14,0.38 -1.32,-1.11 -2.42,-3.64 -2.79,-4.03 -3.4,0.96 -5.24,2.83 -8.32,3.52z"/>
  <path class="fil4" d="M539.31 176c-6.93,3.02 -8.72,-5.15 -6.55,-8.06 1.43,-1.93 1.02,-1.23 1.3,-3.97 4.4,-0.96 6.55,-4.63 10.38,-6.43 4.59,6.81 3.91,16.05 -5.13,18.46z"/>
  <path class="fil4" d="M466.74 203.03c2.22,-0.96 5.49,-1.58 7.54,-3.02 -11.91,-1.24 -17,0.06 -29.34,-3.87 2.49,-2.69 13.36,-3.42 17.75,-7.29 -18.79,-15.44 -55.13,-3.04 -76.15,2.21 -2.5,-3.86 6.62,-30.23 10.22,-33.42 6.98,-12.24 -54.13,10 -56.64,12.46 8.83,-16.55 13,-22.49 28.75,-36.13 -14.27,0 -24.96,-5.96 -57.47,2.05 9.68,-13.13 22.7,-19.27 39.47,-27.43 -12.77,-4.09 -26.12,-8.46 -35.03,-9.28 5.92,-17.17 39.54,-35.32 47.42,-30.08 -2.15,3.31 -3.19,2.54 -3.05,8.74 9.33,0.72 20.91,7.25 26.18,13.05 23.36,3.63 -4.01,-44.51 -31.77,-49.23 0.25,9 3.26,9 5.3,15.28 -10.21,-1.38 -16.77,-26.91 -12.9,-34.34 36.73,4.32 59.99,32.07 72.62,34.95 -0.61,-7.59 -8.72,-15.16 -8.83,-17.22 14.83,-7.89 43.68,8.9 56.63,11.79l-9.02 -8.3c16.94,-0.46 42.32,24.4 42.97,40.63 0.87,2.86 -0.65,4.64 1.76,6.75l3 -4.83c7.69,6.3 7.76,21.35 1.84,22.82 -0.77,-3 -2.6,-7.22 -6.15,-10.01 1.21,3.01 2.12,10.25 0.49,12.58 -1.07,-1.8 -8.05,-9.05 -9.95,-8.89 2.19,6.48 1.92,8.89 -0.02,11.48 -10.5,14.06 -26.03,-19.97 -64.19,-14.09 4.55,1.94 13.25,10 12.16,15.05 1.38,-0.11 9.4,5.44 13.56,6.98 6.47,2.42 14.02,0.47 20.23,2.18 -1.25,1.72 -2.36,2.39 -4.08,3.56 3.43,2.86 10.49,1.52 13.53,1.66 1.24,-3.1 1.08,-3.14 6.17,-6.52 1.9,-1.25 9.23,-9.4 16.37,-8.2 5.76,0.98 36.25,30.11 39.53,35.44 -21.27,-3.25 -18.3,4.21 -30.88,-2.27l2.11 6.11c4.88,6.9 12.32,6.59 12.5,11.37 -8.43,19.14 -45.62,13.14 -46.29,-3.97l12.56 3.49c-3.32,-10.02 -17.8,-14.21 -25.22,-16.49 1.62,-3.13 10.5,-3.14 13.5,-5.12 -34.57,-9.58 -36.13,-6.38 -52.6,-1.26 0.98,-4.51 4.59,-7.67 5.8,-11.3 -12.83,4.45 -20.13,14.56 -21.77,27.83 4.1,-1.01 10.72,-4.74 16.89,-4.76 -1.59,3.89 -6.42,6.17 -6.53,11.99 19.06,0.41 34.52,1.83 51.42,7.44 7.28,2.42 13.47,6.14 20.37,8.85 10.25,4.03 15.47,0.27 25.65,-0.11 1.9,10.97 -8.35,23.68 -11.85,21.24l-0.23 -0.32c0.57,-1.19 1.89,-4.47 2.27,-6.24 -18.93,8.81 -23.94,15.69 -46.6,6.01z"/>
  <path class="fil5" d="M444.57 36.65c-14.94,-2.58 -17.95,-2.88 -29.45,-12.69 -1.14,3.17 -1.07,4.2 -1.31,7.47 -2.32,-0.58 -5.9,-17.4 -6.08,-20.48 7.12,1.29 36.23,18.13 36.84,25.7z"/>
  <path class="fil6" d="M468.56 115.67c-7.81,1.59 -9.99,1.41 -10.93,-6.78 5.34,0.29 10.03,2.34 10.93,6.78z"/>
  <path class="fil0" d="M448.43 146.24c9.7,3.26 28.1,9.1 29.49,21.55 -15.54,-4.68 -23.76,-4.18 -39.37,-6.23 -1.01,-3.57 1.75,-5.09 3.03,-5.97 1.16,-0.23 2.52,-1.29 3.65,-1.29 1.13,0 1.89,2.7 2.86,2.86 0.57,0.1 3.1,-0.45 4.07,-0.6 0.99,-0.15 2.05,2.12 2.93,2.64 1.06,0.62 8.74,0.9 9.19,0.75 -0.67,-1.05 -7.45,-1.41 -8.36,-2.26 -0.6,-0.56 -2.36,-3.1 -3.09,-3.09 -1.24,0.02 -3.6,0.84 -4.14,0.38 -1.32,-1.11 -2.42,-3.64 -2.79,-4.03 -3.4,0.96 -5.24,2.83 -8.32,3.52"/>
  <path class="fil5" d="M396.71 122.29c-2.39,5.1 -2.04,4.58 -8.65,11.59 17.13,-0.96 29.82,-13.35 52.27,-18.44 1.09,-5.05 -7.61,-13.11 -12.16,-15.05 38.16,-5.88 53.69,28.15 64.19,14.09 1.94,-2.59 2.21,-5 0.02,-11.48 1.9,-0.16 8.88,7.09 9.95,8.89 1.63,-2.33 0.72,-9.57 -0.49,-12.58 3.55,2.79 5.38,7.01 6.15,10.01 5.92,-1.47 5.85,-16.52 -1.84,-22.82l-3 4.83c-2.41,-2.11 -0.89,-3.89 -1.76,-6.75 -0.65,-16.23 -26.03,-41.09 -42.97,-40.63l9.02 8.3c-12.95,-2.89 -41.8,-19.68 -56.63,-11.79 0.11,2.06 8.22,9.63 8.83,17.22 -12.63,-2.88 -35.89,-30.63 -72.62,-34.95 -3.87,7.43 2.69,32.96 12.9,34.34 -2.04,-6.28 -5.05,-6.28 -5.3,-15.28 27.76,4.72 55.13,52.86 31.77,49.23 -5.27,-5.8 -16.85,-12.33 -26.18,-13.05 -0.14,-6.2 0.9,-5.43 3.05,-8.74 -7.88,-5.24 -41.5,12.91 -47.42,30.08 6.01,0 28.02,6.78 35.03,9.28 -16.64,7.82 -31.06,15.7 -39.47,27.43 20.88,-10.01 61.22,-21.79 85.31,-13.73zm86.89 7.51c0.79,-2.96 2.1,-3.82 6.14,-6.5 1.9,-1.25 9.23,-9.4 16.37,-8.2 5.76,0.98 36.25,30.11 39.53,35.44 -21.27,-3.25 -18.3,4.21 -30.88,-2.27 -0.06,0.06 -5.15,-1.79 -12.58,-5.19 0.4,-1.52 0.83,-1.94 -0.29,-6.12 -0.25,0.92 -0.1,3.64 -1.69,4.55 -1.91,-0.95 -4.66,-2.11 -6.5,-3.4 1.21,-0.98 0.1,-3.16 0.1,-3.16 -0.61,1.05 -3.07,2.67 -3.98,2.02 -1.62,-1.15 -0.59,-3.09 -2.03,-4.44l-4.09 -2.73 -0.1 0z"/>
  <polygon class="fil3" points="431.59,73.32 449.44,77.99 461.8,78.59 485.83,95.84 460.97,83.49 445.33,81.93 "/>
  <polygon class="fil3" points="480.54,59.96 485.62,69.35 484.96,73.3 496.95,92.62 480.99,73.83 482.87,68.78 "/>
  <polygon class="fil3" points="463.61,66.62 472.5,73.77 492.99,97.2 471.89,76.41 "/>
 </g>
</svg>
